. 
  
http://www.torrenting.com/        :     Greatest Movie Tracker on The Net!!!
 
http://www.Torrenting.com          :     Once & For all ;)


               www . Torrenting . Com 

(((((((((((((= Enjoy No RAR releases =))))))))))))))))))))


...................................NFO:....................................

.[img]http://img843.imageshack.us/img843/9004/drive2011independent.jpg[/img]

[color=blue][size=5][b]Drive.2011.DVDScr.XVID.AC3.HQ.Hive-CM8[/b][/size][/color]


[b]Thx Hive


CM8 Doing It Right The First Time :D


Source: screener

Encode:
Source was loads of work. took me 2 days to fix everything.
Fixed Framerate,Aspect,Resolution,Brightness,Contrast,RGB Colours,Noise,Sync,Sharpness.
looks perfect now.
And yes it is in sync! ;)
The Endcredits after the movie were missing, just a black screen for 8 mins. i chopped them off and wrote some very short one to save space.
enjoy

Video: 720x304 @bitrate 1600 2pass
Audio: English AC3 2.0 Stereo
Sample: yes included[/b]


[url]http://www.imdb.com/title/tt0780504/[/url]


General
Complete name                    : Drive.2011.DVDScr.XVID.AC3.HQ.Hive-CM8.avi
Format                           : AVI
Format/Info                      : Audio Video Interleave
File size                        : 1.24 GiB
Duration                         : 1h 35mn
Overall bit rate                 : 1 857 Kbps
Writing application              : Nandub v1.0rc2
Writing library                  : Nandub build 1853/release

Video
ID                               : 0
Format                           : MPEG-4 Visual
Format profile                   : Advanced Simple@L5
Format settings, BVOP            : 2
Format settings, QPel            : Yes
Format settings, GMC             : No warppoints
Format settings, Matrix          : Default (H.263)
Muxing mode                      : Packed bitstream
Codec ID                         : XVID
Codec ID/Hint                    : XviD
Duration                         : 1h 35mn
Bit rate                         : 1 591 Kbps
Width                            : 720 pixels
Height                           : 304 pixels
Display aspect ratio             : 2.35:1
Frame rate                       : 23.976 fps
Color space                      : YUV
Chroma subsampling               : 4:2:0
Bit depth                        : 8 bits
Scan type                        : Progressive
Compression mode                 : Lossy
Bits/(Pixel*Frame)               : 0.303
Stream size                      : 1.06 GiB (86%)
Writing library                  : XviD 1.2.1 (UTC 2008-12-04)

Audio
ID                               : 1
Format                           : AC-3
Format/Info                      : Audio Coding 3
Mode extension                   : CM (complete main)
Codec ID                         : 2000
Duration                         : 1h 35mn
Bit rate mode                    : Constant
Bit rate                         : 256 Kbps
Channel(s)                       : 2 channels
Channel positions                : Front: L R
Sampling rate                    : 48.0 KHz
Bit depth                        : 16 bits
Compression mode                 : Lossy
Stream size                      : 175 MiB (14%)
Alignment                        : Split accross interleaves
Interleave, duration             : 42 ms (1.00 video frame)
Interleave, preload duration     : 500 ms


Ryan Gosling	... 	Driver
Carey Mulligan	... 	Irene
Bryan Cranston	... 	Shannon
Albert Brooks	... 	Bernie Rose
Oscar Isaac	... 	Standard


A Hollywood stunt performer who moonlights as a wheelman discovers that a contract 
has been put on him after a heist gone wrong. 


[img]http://img199.imageshack.us/img199/8839/18745910.png[/img]
[img]http://img607.imageshack.us/img607/3994/drdr.png[/img]
[img]http://img508.imageshack.us/img508/9688/drdrdr.png[/img]
[img]http://img594.imageshack.us/img594/1811/drdrdrdr.png[/img]
[img]http://img35.imageshack.us/img35/3386/drdrdrdrdr.png[/img]
[img]http://img600.imageshack.us/img600/9396/drdrdrdrdrdr.png[/img]
[img]http://img716.imageshack.us/img716/2981/drdrdrdrdrdrdr.png[/img]
[img]http://img28.imageshack.us/img28/5493/drdrdrdrdrdrdrdr.png[/img]
[img]http://img193.imageshack.us/img193/3027/drdrdrdrdrdrdrdrdr.png[/img]





Greetz

ViSiON,SiC,SANTi,3LT0N,YanKeeS,MAGNET,THC,T0XiC,LKRG,FANTASIA-PLAY,FANTASIA-M,BHRG,
D2U,WBZ,FLAWL3SS,NOVA,Vik,Rapeseed,SAFC,goldadvance,MEMORY100,scumbag,KaN1vE,Unevano,Pinnz,
Mr Hive,Wayne,cedrict wink,and all P2P groups


LOOKING FOR ANYTHING YOU WANT TO LOOK AND SOUND BETTER



CM8@hushmail.com